<?xml version="1.0" standalone="no"?>
<!DOCTYPE svg PUBLIC "-//W3C//DTD SVG 20010904//EN"
 "http://www.w3.org/TR/2001/REC-SVG-20010904/DTD/svg10.dtd">
<svg version="1.0" xmlns="http://www.w3.org/2000/svg"
 width="512.000000pt" height="512.000000pt" viewBox="0 0 512.000000 512.000000"
 preserveAspectRatio="xMidYMid meet">
<metadata>
Created by potrace 1.14, written by Peter Selinger 2001-2017
</metadata>
<g transform="translate(0.000000,512.000000) scale(0.100000,-0.100000)"
fill="#000000" stroke="none">
<path d="M3263 5096 c-165 -44 -329 -155 -438 -296 -62 -81 -131 -229 -150
-322 -19 -96 -19 -242 0 -330 18 -86 71 -208 123 -285 l40 -60 -761 -761 -762
-760 -50 35 c-78 55 -203 111 -283 128 -94 19 -242 19 -340 0 -93 -19 -241
-88 -322 -150 -144 -111 -253 -273 -296 -443 -23 -87 -25 -112 -21 -237 5
-160 19 -223 77 -341 76 -155 213 -295 367 -372 71 -37 215 -80 290 -87 l71
-7 7 -71 c7 -75 50 -219 87 -290 77 -154 212 -287 370 -365 118 -60 181 -74
343 -79 125 -4 150 -2 237 21 232 59 425 221 533 448 99 208 102 455 6 660
-21 46 -55 105 -75 133 l-36 50 762 762 761 761 59 -40 c142 -96 279 -138 449
-138 125 0 227 23 337 75 227 108 389 301 448 533 23 87 25 112 21 237 -5 162
-19 225 -79 343 -78 158 -211 293 -365 370 -71 37 -215 80 -290 87 l-71 7 -7
71 c-7 75 -50 219 -87 290 -77 154 -217 291 -372 367 -120 59 -180 72 -346 76
-129 4 -155 1 -237 -20z m390 -212 c93 -24 201 -90 271 -165 76 -82 107 -138
141 -254 24 -81 26 -101 21 -193 -5 -81 -3 -109 9 -132 26 -50 60 -61 177 -54
92 5 112 3 193 -21 116 -34 172 -65 254 -141 76 -71 141 -177 167 -276 26 -95
24 -254 -4 -345 -46 -151 -157 -287 -288 -355 -87 -45 -121 -56 -214 -67 -174
-22 -336 26 -474 142 -74 61 -100 73 -143 63 -39 -10 -1719 -1690 -1729 -1729
-10 -42 2 -71 56 -134 59 -68 111 -165 135 -247 23 -77 23 -230 1 -315 -50
-195 -207 -359 -403 -421 -89 -29 -258 -31 -351 -6 -99 27 -205 91 -276 167
-76 82 -107 138 -141 254 -24 81 -26 101 -21 193 10 169 -17 196 -186 186 -92
-5 -112 -3 -193 21 -116 34 -172 65 -254 141 -169 157 -233 421 -156 648 44
130 160 265 282 328 86 45 120 56 215 68 172 21 334 -28 472 -143 74 -61 100
-73 144 -63 38 10 1718 1690 1728 1729 10 42 -2 71 -56 134 -59 68 -111 165
-135 247 -23 77 -23 230 -1 315 58 226 254 404 486 441 70 11 198 4 273 -16z"/>
</g>
</svg>
